<?xml version="1.0" encoding="UTF-8"?><svg id="Camada_2" xmlns="http://www.w3.org/2000/svg" viewBox="0 0 274.06 111.74"><defs><style>.cls-1{fill:#ffed00;}.cls-1,.cls-2{fill-rule:evenodd;}.cls-2{fill:#312783;}.cls-3{fill:#ea621c;}</style></defs><g id="Camada_1-2"><path class="cls-2" d="M18.66,0h74.53c5.19,0,9.52,1.85,13.1,5.44,3.71,3.58,5.56,8.03,5.56,13.23v74.53c0,5.07-1.85,9.52-5.56,13.1-3.58,3.58-7.91,5.44-13.1,5.44H18.66c-5.19,0-9.64-1.85-13.23-5.44-3.58-3.58-5.44-8.03-5.44-13.1V18.66c0-5.19,1.85-9.64,5.44-13.23C9.02,1.85,13.47,0,18.66,0h0Z"/><path class="cls-1" d="M85.41,63.41h6.06l7.42-7.54h-8.16l-5.31,7.54h0ZM83.19,65.26h-8.65v16.19c0,4.33,1.11,7.54,3.21,9.64,1.85,1.85,4.33,2.72,7.42,2.72,4.33,0,7.54-1.73,9.52-5.07h.12v4.45h7.66v-27.93h-8.65v16.32c0,.74-.12,1.36-.25,1.73-.99,2.35-2.72,3.58-5.32,3.58-3.34,0-5.07-2.35-5.07-6.92v-14.71h0ZM60.94,74.53c-5.69,0-10.01.86-12.98,2.72-3.09,1.85-4.7,4.57-4.7,8.16,0,2.22.87,4.2,2.47,5.81,1.85,1.73,4.2,2.6,7.05,2.6,3.83,0,6.67-1.24,8.65-3.58h.25v2.97h7.91v-16.44c0-3.71-.99-6.55-2.84-8.65-2.22-2.35-5.56-3.58-10.01-3.58s-8.41.87-11.37,2.72l1.61,5.44c2.47-1.48,5.19-2.23,8.28-2.23,3.83,0,5.69,1.24,5.69,3.83v.25h0ZM39.8,65.26h-5.32v-9.39h-8.41v9.39h-3.96v6.43h3.96v11.25c0,3.83.74,6.67,2.35,8.28,1.61,1.73,3.96,2.6,6.8,2.6,1.85,0,3.34-.25,4.7-.74l-.12-6.55c-.25.25-.74.37-1.61.37-1.36,0-2.35-.49-2.97-1.48-.49-.74-.74-1.98-.74-3.83v-9.89h5.32v-6.43h0ZM51.3,84.67c0-3.34,3.34-4.82,9.89-4.7v2.97l-.12,1.61c-.37,1.11-1.11,1.98-2.1,2.6-.99.87-2.22,1.24-3.58,1.24-2.72,0-4.08-1.24-4.08-3.71h0ZM9.27,55.87v37.33h8.78v-37.33h-8.78Z"/><path class="cls-3" d="M124.75,84.7c1.65,1.13,4.28,2.03,6.83,2.03,3.38,0,5.15-1.84,5.15-4.52s-1.52-4.15-5.02-5.89c-4.78-2.35-7.74-5.75-7.74-10.46,0-5.93,4.08-10.5,10.91-10.5,3.01,0,5.31.8,6.79,1.65l-1.28,5.7c-1.11-.66-3.05-1.55-5.64-1.55-3.21,0-4.65,1.98-4.65,4,0,2.59,1.56,3.77,5.43,5.79,5.06,2.59,7.33,5.93,7.33,10.69,0,6.31-4.16,10.93-11.53,10.93-3.13,0-6.3-.99-7.78-2.03l1.19-5.84Z"/><path class="cls-3" d="M151.75,81.08c.16,4.47,2.96,6.26,6.26,6.26,2.26,0,4.03-.47,5.6-1.08l.86,4.8c-1.89.94-4.57,1.51-7.41,1.51-7.08,0-11.12-5.09-11.12-13.24,0-7.54,3.79-14.04,10.5-14.04,5.56,0,9.18,4.52,9.18,13,0,1.04-.04,2.03-.16,2.78h-13.71ZM159.99,76.22c.04-2.73-.91-6.08-3.91-6.08s-4.16,3.49-4.32,6.08h8.23Z"/><path class="cls-3" d="M184.19,65.91h5.31c-.12,1.88-.21,4.19-.21,7.82v14.79c0,5.13-.41,14.65-11.57,14.65-2.68,0-5.43-.61-7.25-1.79l1.19-5.32c1.36.85,3.5,1.7,5.93,1.7,3.42,0,5.68-2.21,5.68-7.25v-1.93h-.08c-1.15,2.07-3.21,3.34-5.72,3.34-5.43,0-8.85-5.61-8.85-12.76,0-8.67,4.4-13.8,9.47-13.8,2.88,0,4.73,1.6,5.76,3.67h.08l.25-3.11ZM183.2,76.08c0-3.34-1.77-5.28-3.83-5.28-2.76,0-4.61,3.2-4.61,8.15,0,4.57,1.69,7.68,4.57,7.68,1.4,0,3.87-1.04,3.87-5.46v-5.09Z"/><path class="cls-3" d="M214.16,65.86v18.23c0,3.11.12,5.79.21,8.01h-5.31l-.29-3.49h-.12c-.95,1.7-3.05,4-6.59,4-4.36,0-7.33-3.25-7.33-11.12v-15.64h6.09v14.6c0,3.96.99,6.45,3.5,6.45,1.98,0,3.75-1.93,3.75-4.9v-16.16h6.09Z"/><path class="cls-3" d="M225.16,70.43c1.07-3.39,3.54-5.13,5.68-5.13.58,0,.95.05,1.36.14v6.64c-.45-.09-.95-.14-1.56-.14-2.76,0-4.86,2.12-4.86,6.59v13.57h-6.09v-18.04c0-3.25-.08-5.84-.16-8.2h5.23l.25,4.57h.16Z"/><path class="cls-3" d="M255.58,78.77c0,9.99-5.6,13.85-10.7,13.85-6.18,0-10.62-4.99-10.62-13.52s4.65-13.8,10.87-13.8,10.46,5.51,10.46,13.47ZM245,70.43c-3.38,0-4.57,4.52-4.57,8.53,0,4.66,1.56,8.53,4.53,8.53s4.45-3.91,4.45-8.57c0-4.1-1.28-8.48-4.41-8.48Z"/><path class="cls-3" d="M259.74,85.79c1.19.8,3.46,1.74,5.35,1.74,2.14,0,3.17-1.04,3.17-2.64s-.78-2.45-3.29-3.67c-4.28-1.98-5.85-4.76-5.85-7.63,0-4.71,3.29-8.29,8.4-8.29,2.35,0,4.36.66,5.68,1.46l-1.15,4.9c-.99-.61-2.59-1.37-4.32-1.37-1.85,0-2.84,1.08-2.84,2.5s.86,2.21,3.5,3.49c3.87,1.84,5.68,4.38,5.68,8.01,0,4.99-3.29,8.29-9.02,8.29-2.51,0-4.94-.71-6.46-1.74l1.15-5.04Z"/></g></svg>