<?xml version="1.0" encoding="UTF-8"?><svg id="Camada_2" xmlns="http://www.w3.org/2000/svg" xmlns:xlink="http://www.w3.org/1999/xlink" viewBox="0 0 1342.55 283.17"><defs><style>.cls-1{fill:#1d1d1b;fill-rule:evenodd;}.cls-2{fill:url(#radial-gradient-5);}.cls-3{fill:url(#radial-gradient-4);}.cls-4{fill:url(#radial-gradient-3);}.cls-5{fill:url(#radial-gradient-2);}.cls-6{fill:url(#radial-gradient);}.cls-7{fill:#00422e;}</style><radialGradient id="radial-gradient" cx="215.91" cy="89.68" fx="215.91" fy="89.68" r="73.09" gradientUnits="userSpaceOnUse"><stop offset="0" stop-color="#fffcf5"/><stop offset=".28" stop-color="#e7c665"/><stop offset=".6" stop-color="#ca9705"/><stop offset=".8" stop-color="#9f7213"/><stop offset="1" stop-color="#715312"/></radialGradient><radialGradient id="radial-gradient-2" cx="200.72" cy="57.13" fx="200.72" fy="57.13" r="111.1" gradientUnits="userSpaceOnUse"><stop offset="0" stop-color="#fffcf5"/><stop offset=".35" stop-color="#e7c665"/><stop offset=".6" stop-color="#ca9705"/><stop offset=".8" stop-color="#9f7213"/><stop offset="1" stop-color="#715312"/></radialGradient><radialGradient id="radial-gradient-3" cx="98.55" cy="98.12" fx="98.55" fy="98.12" r="214.04" gradientUnits="userSpaceOnUse"><stop offset="0" stop-color="#ebf3f1"/><stop offset=".18" stop-color="#98c3b8"/><stop offset=".42" stop-color="#37a08d"/><stop offset=".6" stop-color="#007959"/><stop offset=".8" stop-color="#005840"/><stop offset="1" stop-color="#004632"/></radialGradient><radialGradient id="radial-gradient-4" cx="98.55" cy="98.12" fx="98.55" fy="98.12" r="214.04" xlink:href="#radial-gradient-3"/><radialGradient id="radial-gradient-5" cx="98.55" cy="98.12" fx="98.55" fy="98.12" r="214.04" xlink:href="#radial-gradient-3"/></defs><g id="Camada_2-2"><path class="cls-7" d="M14.78,112.01s11.86-12.67,44.57,19.76c32.71,32.44,59.76,65.57,59.76,65.57,0,0-39.81-152.06-15.99-141.53,23.82,10.53,42.99,33.86,42.99,33.86l17.92-46.08S122.78-7.15,97.03,7.1c0,0-44.5,31.5-37.5,66.75,0,0-31.25-30.5-40.97-2.48-8.93,25.76-3.78,40.65-3.78,40.65Z"/><path class="cls-6" d="M215.91,16.59c-40.37,0-73.09,32.72-73.09,73.09s32.72,73.09,73.09,73.09,73.09-32.72,73.09-73.09-32.72-73.09-73.09-73.09Z"/><path class="cls-5" d="M215.91,16.59c-40.37,0-73.09,32.72-73.09,73.09s32.72,73.09,73.09,73.09,73.09-32.72,73.09-73.09-32.72-73.09-73.09-73.09Z"/><path class="cls-4" d="M71.85,212.91c-20.55-36.38-39.51-76.72-47.4-108.23-3.65-14.56-4.35-27.52-4.27-36.07C7.37,89.95,0,114.92,0,141.62c0,.53.01,1.06.02,1.59,8.25,31.14,26.47,80.26,64.53,117.46,8.83,5.76,18.33,10.56,28.37,14.27l20.68,5.88c5.43,1.1,10.97,1.89,16.61,2.36-12.03-7.85-33.78-26.75-58.35-70.26Z"/><path class="cls-3" d="M199.91,236.88c-14.42-16.37-41.17-49.63-57.87-83.74-15.79-32.25-55.59-111.39-40.44-147.72-17.5,5.19-33.6,13.66-47.57,24.7-2,6.23-3.47,16.29-.35,30.58,5.76,26.32,33.12,110.87,72.05,161.36,15.54,20.15,32.1,41.93,46.25,51.38,3.25,2.17,6.39,3.68,9.31,4.74,16.87-4.84,32.45-12.72,46.11-23.01-2.55-.84-5.27-1.9-8.05-3.22-6.89-3.29-14.08-8.95-19.45-15.04Z"/><path class="cls-2" d="M267.44,162.77c-12.41-11.35-44.33-54.75-53.67-80.42-6.62-18.2-15.33-40.8-14.68-55.41.12-2.83.65-6.67,2.68-7.84,3.11-1.79,3.55-1.6,5.34-2.03.41-.1.75-.12,1.51-.11C192.21,8.47,172.52,1.5,153.16,0c-3.71,5.39-6.23,15.83-.71,36.01,10.67,39,33.84,113.14,86.25,165.07,0,0,11.07,13.56,25.91,12.35,8.7-14.82,14.79-31.35,17.64-48.97-5.04,2.05-10.38,2.35-14.81-1.7Z"/><path class="cls-1" d="M404.62,24.91h-.58l-.17.08c-1.71.8-3.93.91-6.07.91h-55.38s-1.44-.19-1.44-.19c-1.27-.16-2.46-.28-3.57-.73l-.14-.06h-1.16l-5.33,18.22h1.79l.22-.2c3.7-3.45,9.38-5.39,16.02-5.39h11.45v61.56l.02,1.86c.02.69.02,1.41.02,2.16,0,5.71-.51,12.45-5.64,14.41l-.51.19v1.76h29.14v-1.66l-.39-.23c-6.73-3.94-6.84-8.85-6.84-16.21v-63.83h11.73c4.36,0,9.55.58,11.22,5.07l.19.51h1.57l4.89-18.22h-1.04ZM364.15,193.83c0,16.49,14.43,22.96,27.15,28.69,10.63,4.78,20.68,9.28,20.68,18.8,0,8.93-11.06,13.68-19.04,13.68-10.51,0-21.69-4.27-29.9-11.4l-1.96-1.69,4.72,20.44.43.16c7.61,2.82,16.08,4.25,25.18,4.25,21.01,0,38.1-13.35,38.1-29.77,0-14.44-14.39-21.04-27.09-26.87-10.66-4.9-20.74-9.52-20.74-17.82,0-8.76,9.21-11.87,17.09-11.87s16.19,3.35,21.23,8.54l1.45,1.49v-18.49l-.59-.19c-6.58-2.06-13.63-3.11-20.96-3.11-16.49,0-35.74,6.59-35.74,25.15h0ZM1040.94,216.17c0-21.12,14.17-35.89,34.47-35.89,22.12,0,34.06,20.22,34.06,39.25,0,20.89-13.9,35.47-33.79,35.47-21.46,0-34.75-20.16-34.75-38.83h0ZM1037.93,183.39c-9.37,9.2-14.53,21.29-14.53,34.04,0,28.12,22.18,49.32,51.6,49.32s52-21.97,52-50.02c0-12.62-4.98-24.56-14.03-33.6-9.48-9.48-22.48-14.66-36.59-14.59-14.67-.35-28.33,4.93-38.45,14.86h0ZM956.24,182.66c23.56,0,36,12.41,36,35.89,0,25.23-19.81,34.21-38.36,34.21-3.38,0-6.41-.31-9.31-.86v-67.84c4.09-.92,7.93-1.4,11.67-1.4h0ZM923.43,170.91h-.84v1.9l.61.18c5.73,1.7,5.62,9.51,5.53,15.78l-.02,2.12v52.65l.02,2.41c.06,7.03.12,12.57-5.76,16.6l-.37.25v1.72h34.21c31.2,0,52.98-19.59,52.98-47.65s-20.03-45.96-52.28-45.96h-34.07ZM1266.19,185.96c1.33,3.46,11.61,29.99,12.39,32.02h-24.92c.8-2.04,11.17-28.57,12.53-32.02h0ZM1275.36,170.91h-22.8v1.89l.59.19c1.69.53,2.77,1.32,3.3,2.42,1.07,2.24-.3,5.71-1.49,8.76l-.26.69-23.2,58.24s-.76,1.99-.76,1.99c-2.32,6.14-4.53,11.99-9.66,15.77-7.47-5.15-14.45-11.44-19.15-17.28,0,0-15.61-19.72-19.24-24.31,10.89-3.02,21.52-12.3,21.52-25.03,0-14.17-11.63-23.33-29.62-23.33h-33.94v1.85l.56.21c5.79,2.17,5.69,10.04,5.59,16.36l-.03,2.12v52.65l.03,2.08c.08,5.99.2,14.22-5.58,16.26l-.57.2v1.87h28.24v-1.87l-.56-.2c-5.22-1.84-5.71-8.62-5.71-14.37,0-.72,0-1.42.02-2.1v-63.7c3.33-.56,6.06-.9,8.66-1.01,4.97-.22,9.65,1.41,12.85,4.48,2.76,2.64,4.21,6.17,4.21,10.18,0,13.59-14.63,17.82-23.35,19.14l-1.28.19,13.49,20.81c.06.07,17.02,21.16,17.02,21.16,4.23,5.26,8.94,7.3,16.78,7.3h34.21v-1.86l-.55-.2c-3.19-1.21-4.46-2.73-4.46-5.15,0-1.98.85-4.59,2.17-8.14,0-.01,6.04-16.43,7.03-19.16h33.87c.4,1.03,7.3,19.16,7.3,19.16l.67,1.7c1.44,3.74,2.29,5.93,2.29,7.45,0,1.9-1.31,2.74-4.46,4.16l-.5.23v1.81h30.19v-1.79l-.47-.23c-6.97-3.56-9.62-10.27-12.42-17.37l-.8-2.02-29.13-72.19h-.57ZM862.28,185.96c1.34,3.46,11.62,29.99,12.39,32.02h-24.91c.79-2.04,11.17-28.57,12.52-32.02h0ZM871.47,170.91h-22.82v1.89l.61.19c1.69.53,2.76,1.32,3.28,2.42,1.07,2.24-.28,5.71-1.47,8.76l-.26.69-23.22,58.24s-.75,1.99-.75,1.99c-2.33,6.14-4.54,11.99-9.67,15.77-7.46-5.15-14.44-11.44-19.14-17.28,0,0-15.63-19.72-19.25-24.31,10.89-3.02,21.52-12.3,21.52-25.03,0-14.17-11.62-23.33-29.62-23.33h-33.92v1.85l.54.21c5.81,2.17,5.69,10.04,5.59,16.36l-.02,2.12v52.65l.02,2.08c.09,5.99.22,14.22-5.58,16.26l-.56.2v1.87h28.24v-1.87l-.55-.2c-5.22-1.84-5.73-8.62-5.73-14.37,0-.72.02-1.42.02-2.1l.02-1.87v-61.84c3.32-.56,6.06-.9,8.64-1.01,4.97-.22,9.65,1.41,12.84,4.48,2.76,2.64,4.21,6.17,4.21,10.18,0,13.59-14.63,17.82-23.33,19.14l-1.3.19,13.51,20.81c.05.07,17.01,21.16,17.01,21.16,4.25,5.26,8.95,7.3,16.79,7.3h34.21v-1.86l-.54-.2c-3.21-1.21-4.46-2.73-4.46-5.15,0-1.98.84-4.59,2.17-8.14,0-.01,6.03-16.43,7.04-19.16h33.87c.39,1.03,7.29,19.16,7.29,19.16l.67,1.7c1.44,3.74,2.29,5.93,2.29,7.45,0,1.9-1.32,2.74-4.46,4.16l-.5.23v1.81h30.2v-1.79l-.47-.23c-6.97-3.56-9.62-10.27-12.43-17.37l-.8-2.02-29.12-72.19h-.58ZM715.42,170.91h-27.27v1.85l.54.2c5.76,2.2,5.67,10.46,5.59,16.5v1.85s-.01,42.68-.01,42.68c0,4.68.01,7.78-2.76,11.58-4.12,5.91-11.46,9.43-19.61,9.43-14.31,0-21.27-8.64-21.27-26.4v-37.29l-.02-1.85c-.06-6.04-.15-14.29,5.59-16.5l.54-.2v-1.85h-28.1v1.85l.55.21c5.8,2.17,5.67,10.32,5.58,16.27l-.02,2.07v38.35c-.01,9.76-.01,18.98,7.32,27.03,5.84,6.38,15.24,10.06,25.79,10.06,8.55,0,19.61-2.74,26.4-10.12v7.88h22.12v-1.86l-.54-.2c-5.89-2.21-5.79-10.49-5.72-16.53l.02-1.82v-52.65l-.02-1.87c-.07-6.09-.17-14.41,5.72-16.61l.76-.29-.59-1.77h-.6ZM520.55,218.27c0,29.45,22.54,48.48,57.43,48.48,11.09,0,21.54-1.97,32.62-4.06l1.8-.34-.41-.97c-.66-1.56-.64-3.39-.63-5.17v-32.92c0-2.05,0-4.15.63-5.68l.06-.15v-1.43h-22.96v1.83l.53.22c5.44,2.18,5.86,7.83,5.86,14.99v19.43c-5.75,1.61-12.11,2.5-18.48,2.5-21.82,0-38.92-17-38.92-38.69s15.38-35.89,37.39-35.89c5.09,0,17.63.78,24.13,8.1l.25.28h1.64v-17.61l-.67-.14c-7.59-1.6-14.78-2.39-22.01-2.39-34.85,0-58.26,19.93-58.26,49.6h0ZM497.64,170.21h-.63l-.19.11c-1.28.68-3,.65-4.82.61l-1.31-.02h-45.34v1.85l.55.21c5.88,2.2,5.79,10.53,5.72,16.61l-.02,1.87v52.65l.02,1.84c.07,6.09.16,14.43-5.71,16.5l-.57.2v1.87h59.43l6.83-19.99h-1.92l-.24.2c-6.63,5.87-16.01,8.87-25.09,8.03,0,0-15.49-1.47-16.89-1.61v-31.49h9.86c4.14,0,9.3,0,11.22,3.48l.24.43h1.75v-16.51h-1.46l-.18.09c-1.49.75-3.65.75-5.74.75h-15.7v-24.37c4.31-.74,8.93-.89,13.33-.89,5.92,0,11.58.4,15.77,5.29l.25.3h1.64v-18.04h-.84ZM1328.62,25.21h-.6l-.19.09c-1.3.69-3.02.66-4.85.62l-1.32-.03h-45.34v1.77l.55.19c5.91,2.21,5.82,10.58,5.76,16.68l-.03,1.87v52.72l.03,1.83c.06,6.12.15,14.48-5.76,16.58l-.55.19v1.77h59.41l6.82-19.91h-1.83l-.22.19c-6.66,5.88-16.06,8.9-25.18,8.08,0,0-15.63-1.51-16.95-1.62v-31.61h9.93c4.17-.02,9.34-.02,11.26,3.5l.23.41h1.69v-16.42h-1.41l-.15.08c-1.52.77-3.69.77-5.78.77h-15.77v-24.53c4.34-.73,8.97-.87,13.4-.87,5.93,0,11.62.41,15.82,5.29l.25.3h1.58v-17.95h-.81ZM1257.92,25.9h-25.28v1.68l.4.23c6.71,3.81,6.83,8.7,6.83,16.06v51.57c-2.68-3.38-49.53-62.81-49.53-62.81l-1.92-2.77c-.98-1.1-1.48-1.73-1.98-3.3l-.19-.53-.57-.14h-21.1v1.68l.39.22c6.86,3.97,6.86,9.13,6.86,16.93v55.8c0,7.8,0,12.96-7,17.07l-.38.23v1.66h26.21v-1.66l-.4-.23c-6.71-3.94-6.83-8.85-6.83-16.22v-52.66c2.65,3.38,46.32,59.01,46.32,59.01,5.93,7.73,10.29,12.7,20.68,16.22l1.07.36V44.73c0-7.8,0-12.96,6.83-16.93l.39-.22v-1.68h-.79ZM1142.92,25.9h-27.22v1.76l.51.2c5.84,2.18,5.73,10.09,5.64,16.42l-.03,2.13v52.7l.03,1.86c.06,6.11.15,14.48-5.62,16.57l-.53.19v1.76h28.02v-1.76l-.49-.19c-5.79-2.21-5.7-10.51-5.64-16.57v-56.41c-.07-6.12-.16-14.49,5.64-16.7l.49-.2v-1.76h-.8ZM1025.14,25.9h-.81v1.76l.51.2c5.84,2.18,5.71,10.09,5.62,16.42v2.13s-.01,52.7-.01,52.7v2.09c.11,6.02.23,14.25-5.59,16.34l-.53.17v1.77h28.16v-1.77l-.51-.17c-5.27-1.87-5.76-8.68-5.76-14.45V37.16c3.38-.56,6.12-.9,8.71-1.01,5-.22,9.71,1.42,12.9,4.5,2.77,2.65,4.25,6.19,4.25,10.22,0,13.64-14.67,17.9-23.42,19.21l-1.21.19,13.48,20.75c.05.08,17.03,21.18,17.03,21.18,4.23,5.25,8.92,7.28,16.76,7.28h15.56l-2.33-1.47c-8.63-5.47-16.99-12.71-22.37-19.4,0,0-15.77-19.94-19.31-24.39,10.91-2.99,21.58-12.3,21.58-25.01,0-14.17-11.62-23.32-29.6-23.32h-33.1ZM964.67,40.76c1.26,3.3,11.73,30.34,12.49,32.25h-25.1c.74-1.92,11.32-28.97,12.61-32.25h0ZM973.86,25.9h-22.77v1.79l.54.2c1.71.51,2.79,1.32,3.33,2.43,1.08,2.27-.3,5.74-1.49,8.83l-.25.68-23.25,58.31s-.76,1.97-.76,1.97c-2.68,7.13-5.23,13.89-12.36,17.47l-.44.2v1.71h27.21v-1.76l-.53-.19c-2.22-.84-3.53-1.84-4.1-3.14-.28-.59-.4-1.26-.4-2.03,0-2.13.98-4.93,2.18-8.22,0,0,5.95-16.19,7.05-19.21h33.99c.37.97,7.31,19.21,7.31,19.21l.65,1.7c1.44,3.69,2.29,5.91,2.29,7.46,0,1.93-1.3,2.82-4.48,4.25l-.47.22v1.71h30.12v-1.68l-.43-.23c-6.99-3.58-9.65-10.3-12.47-17.42l-.79-2.02-29.16-72.24h-.53ZM899.44,25.9h-24.88v.93c0,2.8-.93,5.45-2.05,8.39,0,.02-21.07,54.06-22.4,57.47-1.42-3.38-25.4-59.86-25.4-59.86,0-.01-.41-.95-.41-.95-.73-1.65-1.47-3.32-1.47-5.04v-.79l-.79-.14h-25.14v1.69l.4.22c5.36,2.93,4.68,7.28,4.08,11.15l-.17,1.04-7.92,58.6s-.12.72-.12.72c-1.06,7.27-1.98,13.56-7.42,18.37l-.26.24v1.56h24.27v-1.71l-.48-.22c-3.73-1.67-4.79-4.49-4.79-8.42,0-2.23.32-4.81.73-7.77,0,0,6.92-52.56,7.62-57.83,2.09,4.94,25.3,60.36,25.3,60.36,3.49,8.12,5.58,11.94,12.52,17.25l.84.64s28.27-72.65,30.41-78.15c.67,5.74,7.56,64.24,7.56,64.24,0,4.77-.9,8.29-5.16,9.64l-.56.17v1.79h28.43v-1.62l-.33-.25c-5.27-3.71-5.95-7.25-6.77-13.71l-9.19-68.65c0-1.4.28-6.37,3.75-7.38l.59-.19v-1.8h-.79ZM673.27,71.16c0-21.19,14.22-35.99,34.56-35.99,22.18,0,34.15,20.28,34.15,39.34,0,20.92-13.93,35.55-33.87,35.55-21.52,0-34.84-20.2-34.84-38.91h0ZM670.35,38.36c-9.36,9.21-14.52,21.29-14.52,34.04,0,28.12,22.17,49.34,51.6,49.34s51.99-21.98,51.99-50.03c0-12.64-4.97-24.54-14.02-33.6-9.5-9.48-22.48-14.66-36.59-14.62-14.67-.33-28.34,4.95-38.46,14.86h0ZM641.06,25.9h-27.23v1.76l.51.2c5.85,2.18,5.75,10.09,5.62,16.42l-.02,2.13v52.7l.02,1.86c.08,6.11.17,14.48-5.61,16.57l-.53.19v1.76h28.03v-1.76l-.51-.19c-5.78-2.21-5.69-10.51-5.62-16.57l.02-1.86v-52.7l-.02-1.85c-.06-6.12-.15-14.49,5.62-16.7l.51-.2v-1.76h-.79ZM552.69,25.9h-27.5v1.76l.51.2c5.92,2.21,5.83,10.51,5.76,16.59l-.02,1.8v52.73l.02,1.84c.07,6.12.16,14.49-5.76,16.72l-.51.19v1.76h28.3v-1.76l-.52-.19c-5.92-2.23-5.83-10.6-5.76-16.69v-1.87s0-52.73,0-52.73v-1.8c-.08-6.12-.16-14.49,5.74-16.59l.54-.19v-1.77h-.8ZM570.1,25.9h-.79v1.73l.46.2c2.06.94,3.24,2.1,3.63,3.55.85,3.32-2.58,7.94-5.59,11.98l-1.98,2.74v-.03s-18.58,24.81-18.58,24.81l31.26,42.27c2.72,3.74,9.46,6.33,16.31,6.33h13.88v-1.71l-.46-.22c-7.36-3.63-12.41-7.6-16.41-12.9,0,0-24.45-32.28-27.7-36.56.73-.95,32.58-42.06,32.58-42.06l-1.63-.14h-24.98ZM425.12,71.16c0-21.19,14.22-35.99,34.56-35.99,22.17,0,34.16,20.28,34.16,39.34,0,20.92-13.93,35.55-33.87,35.55-21.52,0-34.85-20.2-34.85-38.91h0ZM422.2,38.36c-9.37,9.21-14.54,21.29-14.54,34.04,0,28.12,22.19,49.34,51.6,49.34s52.02-21.98,52.02-50.03c0-12.64-4.98-24.54-14.04-33.6-9.48-9.48-22.48-14.66-36.58-14.62-14.68-.33-28.34,4.95-38.46,14.86h0Z"/></g></svg>